<svg id="logo" xmlns="http://www.w3.org/2000/svg" width="126.099" height="15.108" viewBox="0 0 126.099 15.108">
  <g id="Group_174" data-name="Group 174" transform="translate(0 0.292)">
    <path id="Path_2259" data-name="Path 2259" d="M2536.788,5251.055v-11.224h3.636a13.129,13.129,0,0,1,2.695.169,2.933,2.933,0,0,1,1.616,1.1,3.484,3.484,0,0,1,.651,2.186,3.656,3.656,0,0,1-.375,1.737,3.072,3.072,0,0,1-.953,1.106,3.289,3.289,0,0,1-1.175.533,12.957,12.957,0,0,1-2.35.161h-1.478v4.233Zm2.266-9.325v3.185h1.24a5.871,5.871,0,0,0,1.792-.176,1.491,1.491,0,0,0,.708-.551,1.512,1.512,0,0,0,.256-.874,1.448,1.448,0,0,0-.36-1.01,1.567,1.567,0,0,0-.911-.5,10.925,10.925,0,0,0-1.631-.077Z" transform="translate(-2536.788 -5239.831)"/>
    <path id="Path_2260" data-name="Path 2260" d="M2679.074,5282.548a4.4,4.4,0,0,1,.528-2.076,3.625,3.625,0,0,1,1.5-1.531,4.438,4.438,0,0,1,2.163-.528,4.062,4.062,0,0,1,3.024,1.2,4.141,4.141,0,0,1,1.179,3.028,4.187,4.187,0,0,1-1.19,3.059,4.023,4.023,0,0,1-3,1.213,4.707,4.707,0,0,1-2.132-.5,3.464,3.464,0,0,1-1.543-1.481A4.936,4.936,0,0,1,2679.074,5282.548Zm2.2.114a2.691,2.691,0,0,0,.574,1.852,1.876,1.876,0,0,0,2.829,0,2.729,2.729,0,0,0,.57-1.868,2.68,2.68,0,0,0-.57-1.837,1.876,1.876,0,0,0-2.829,0A2.692,2.692,0,0,0,2681.279,5282.662Z" transform="translate(-2668.344 -5275.504)"/>
    <path id="Path_2261" data-name="Path 2261" d="M2811.649,5288.98l-2.572-8.131h2.091l1.523,5.328,1.4-5.328h2.075l1.354,5.328,1.554-5.328h2.121l-2.611,8.131h-2.067l-1.4-5.229-1.378,5.229Z" transform="translate(-2788.545 -5277.757)"/>
    <path id="Path_2262" data-name="Path 2262" d="M2992.228,5284.14l2.144.36a3.519,3.519,0,0,1-1.305,1.795,3.835,3.835,0,0,1-2.232.616,3.637,3.637,0,0,1-3.139-1.385,4.652,4.652,0,0,1-.8-2.8,4.493,4.493,0,0,1,1.056-3.166,3.48,3.48,0,0,1,2.672-1.144,3.612,3.612,0,0,1,2.863,1.2,5.306,5.306,0,0,1,1,3.672h-5.39a2.172,2.172,0,0,0,.521,1.488,1.628,1.628,0,0,0,1.24.533,1.316,1.316,0,0,0,.85-.277A1.7,1.7,0,0,0,2992.228,5284.14Zm.123-2.174a2.069,2.069,0,0,0-.482-1.42,1.475,1.475,0,0,0-1.118-.486,1.494,1.494,0,0,0-1.164.513,1.984,1.984,0,0,0-.452,1.394Z" transform="translate(-2952.951 -5275.504)"/>
    <path id="Path_2263" data-name="Path 2263" d="M3122.192,5286.727h-2.152v-8.13h2v1.156a3.472,3.472,0,0,1,.922-1.079,1.686,1.686,0,0,1,.93-.26,2.736,2.736,0,0,1,1.417.405l-.667,1.876a1.88,1.88,0,0,0-1.011-.353,1.2,1.2,0,0,0-.765.249,1.7,1.7,0,0,0-.494.9,12.789,12.789,0,0,0-.18,2.725Z" transform="translate(-3076.059 -5275.504)"/>
    <path id="Path_2264" data-name="Path 2264" d="M3209.59,5284.14l2.143.36a3.519,3.519,0,0,1-1.305,1.795,3.833,3.833,0,0,1-2.232.616,3.638,3.638,0,0,1-3.139-1.385,4.654,4.654,0,0,1-.8-2.8,4.489,4.489,0,0,1,1.057-3.166,3.478,3.478,0,0,1,2.672-1.144,3.613,3.613,0,0,1,2.864,1.2,5.3,5.3,0,0,1,1,3.672h-5.39a2.175,2.175,0,0,0,.521,1.488,1.628,1.628,0,0,0,1.24.533,1.313,1.313,0,0,0,.85-.277A1.7,1.7,0,0,0,3209.59,5284.14Zm.122-2.174a2.067,2.067,0,0,0-.482-1.42,1.476,1.476,0,0,0-1.118-.486,1.494,1.494,0,0,0-1.164.513,1.986,1.986,0,0,0-.452,1.394Z" transform="translate(-3153.922 -5275.504)"/>
    <path id="Path_2265" data-name="Path 2265" d="M3340.165,5251.055h-2v-1.194a3.231,3.231,0,0,1-1.175,1.038,3.024,3.024,0,0,1-1.367.341,3.1,3.1,0,0,1-2.4-1.13,4.593,4.593,0,0,1-1-3.15,4.534,4.534,0,0,1,.973-3.143,3.167,3.167,0,0,1,2.457-1.077,3.047,3.047,0,0,1,2.359,1.133v-4.042h2.151Zm-5.743-4.241a3.72,3.72,0,0,0,.359,1.882,1.626,1.626,0,0,0,1.455.843,1.584,1.584,0,0,0,1.263-.631,2.913,2.913,0,0,0,.521-1.887,3.186,3.186,0,0,0-.506-2.018,1.659,1.659,0,0,0-2.576-.007A2.746,2.746,0,0,0,3334.422,5246.814Z" transform="translate(-3272.243 -5239.831)"/>
    <path id="Path_2266" data-name="Path 2266" d="M3542.979,5251.055v-11.224h2.152v4.042a3.043,3.043,0,0,1,2.358-1.133,3.169,3.169,0,0,1,2.458,1.077,4.452,4.452,0,0,1,.972,3.088,4.7,4.7,0,0,1-.991,3.208,3.094,3.094,0,0,1-2.408,1.126,2.99,2.99,0,0,1-1.374-.348,3.287,3.287,0,0,1-1.167-1.03v1.194Zm2.136-4.241a3.46,3.46,0,0,0,.4,1.868,1.7,1.7,0,0,0,1.485.857,1.522,1.522,0,0,0,1.213-.608,2.992,2.992,0,0,0,.5-1.918,3.171,3.171,0,0,0-.506-2.01,1.6,1.6,0,0,0-1.293-.617,1.622,1.622,0,0,0-1.287.6A2.768,2.768,0,0,0,3545.115,5246.814Z" transform="translate(-3467.105 -5239.831)"/>
    <path id="Path_2267" data-name="Path 2267" d="M3668.107,5280.85h2.289l1.945,5.772,1.9-5.772h2.228l-2.871,7.824-.512,1.416a5.745,5.745,0,0,1-.541,1.088,2.345,2.345,0,0,1-.589.608,2.55,2.55,0,0,1-.819.363,4.206,4.206,0,0,1-1.1.131,5.628,5.628,0,0,1-1.217-.131l-.192-1.684a4.754,4.754,0,0,0,.911.1,1.348,1.348,0,0,0,1.11-.44,3.054,3.054,0,0,0,.552-1.122Z" transform="translate(-3582.799 -5277.757)"/>
  </g>
  <g id="Group_175" data-name="Group 175" transform="translate(99.129)">
    <path id="Path_2268" data-name="Path 2268" d="M3860.508,5249.38l-3.712-5.394a.9.9,0,0,1-.2-.479.96.96,0,0,1,.2-.479l3.712-5.394a3.61,3.61,0,0,1,2.3-1.681h-5.873a2.115,2.115,0,0,0-1.915,1.06l-3.142,5.11a2.589,2.589,0,0,0-.5,1.384h0a2.592,2.592,0,0,0,.5,1.385l3.142,5.108a2.115,2.115,0,0,0,1.915,1.062h5.873A3.612,3.612,0,0,1,3860.508,5249.38Z" transform="translate(-3851.38 -5235.954)"/>
    <path id="Path_2269" data-name="Path 2269" d="M4066.584,5249.38l-3.711-5.394a.9.9,0,0,1-.2-.479.96.96,0,0,1,.2-.479l3.711-5.394a3.609,3.609,0,0,1,2.3-1.681h-5.874a2.115,2.115,0,0,0-1.915,1.06l-3.143,5.11a2.588,2.588,0,0,0-.5,1.384h0a2.591,2.591,0,0,0,.5,1.385L4061.1,5250a2.115,2.115,0,0,0,1.915,1.062h5.874A3.611,3.611,0,0,1,4066.584,5249.38Z" transform="translate(-4041.917 -5235.954)" fill="#ec1c24"/>
    <path id="Path_2270" data-name="Path 2270" d="M3961.27,5249.38l3.712-5.394a.9.9,0,0,0,.2-.479.959.959,0,0,0-.2-.479l-3.712-5.394a3.611,3.611,0,0,0-2.3-1.681h5.874a2.114,2.114,0,0,1,1.915,1.06l3.142,5.11a2.584,2.584,0,0,1,.5,1.384h0a2.586,2.586,0,0,1-.5,1.385l-3.142,5.108a2.114,2.114,0,0,1-1.915,1.062h-5.874A3.613,3.613,0,0,0,3961.27,5249.38Z" transform="translate(-3950.855 -5235.954)" fill="#ec1c24"/>
  </g>
</svg>
