<svg id="apparel" xmlns="http://www.w3.org/2000/svg" width="123.442" height="67.491" viewBox="0 0 123.442 67.491">
  <g id="Group_96" data-name="Group 96" transform="translate(16.505 0)">
    <path id="Path_2139" data-name="Path 2139" d="M578.2,766.3l-12.446-18.085a3.025,3.025,0,0,1-.662-1.6,3.236,3.236,0,0,1,.662-1.606L578.2,726.916c3.816-5.293,7.721-5.64,7.721-5.64H566.223a7.091,7.091,0,0,0-6.422,3.557l-10.536,17.131c-1.282,2.261-1.663,3.173-1.676,4.642h0c.013,1.467.394,2.381,1.676,4.641L559.8,768.378a7.091,7.091,0,0,0,6.422,3.558h19.694S582.013,771.589,578.2,766.3Z" transform="translate(-547.59 -721.276)" fill="#231f20"/>
    <path id="Path_2140" data-name="Path 2140" d="M1099.533,766.3l-12.444-18.085a3.025,3.025,0,0,1-.663-1.6,3.236,3.236,0,0,1,.663-1.606l12.444-18.084c3.816-5.293,7.721-5.64,7.721-5.64H1087.56a7.091,7.091,0,0,0-6.422,3.557L1070.6,741.964c-1.281,2.261-1.663,3.173-1.676,4.642h0c.013,1.467.4,2.381,1.676,4.641l10.536,17.131a7.091,7.091,0,0,0,6.422,3.558h19.694S1103.349,771.589,1099.533,766.3Z" transform="translate(-1016.82 -721.276)" fill="#ec1c24"/>
    <path id="Path_2141" data-name="Path 2141" d="M827.491,766.3l12.445-18.085a3.022,3.022,0,0,0,.664-1.6,3.232,3.232,0,0,0-.664-1.606l-12.445-18.084c-3.818-5.293-7.72-5.64-7.72-5.64h19.7a7.087,7.087,0,0,1,6.42,3.557l10.536,17.131c1.284,2.261,1.664,3.173,1.676,4.642h0c-.012,1.467-.392,2.381-1.676,4.641l-10.536,17.131a7.087,7.087,0,0,1-6.42,3.558h-19.7S823.673,771.589,827.491,766.3Z" transform="translate(-792.568 -721.276)" fill="#ec1c24"/>
  </g>
  <g id="Group_97" data-name="Group 97" transform="translate(0 58.418)">
    <path id="Path_2142" data-name="Path 2142" d="M389.449,1315.032l-.706-2.138H385.38l-.727,2.138h-2.2l2.969-9.051h3.259l2.969,9.051Zm-2.388-7.142-1.038,3.053h2.055Z" transform="translate(-382.453 -1305.96)" fill="#231f20"/>
    <path id="Path_2143" data-name="Path 2143" d="M593.679,1305.773a1.078,1.078,0,0,1,.747.281.875.875,0,0,1,.311.675v4.027a.9.9,0,0,1-.311.7,1.077,1.077,0,0,1-.747.279H589.63v3.115h-2.159v-9.073Zm-1.08,1.931H589.63v2.1H592.6Z" transform="translate(-566.98 -1305.773)" fill="#231f20"/>
    <path id="Path_2144" data-name="Path 2144" d="M788.311,1305.773a1.079,1.079,0,0,1,.747.281.877.877,0,0,1,.311.675v4.027a.9.9,0,0,1-.311.7,1.079,1.079,0,0,1-.747.279h-4.048v3.115H782.1v-9.073Zm-1.08,1.931h-2.969v2.1h2.969Z" transform="translate(-742.16 -1305.773)" fill="#231f20"/>
    <path id="Path_2145" data-name="Path 2145" d="M975.007,1315.032l-.706-2.138h-3.363l-.727,2.138h-2.2l2.969-9.051h3.259l2.969,9.051Zm-2.387-7.142-1.038,3.053h2.055Z" transform="translate(-909.487 -1305.96)" fill="#231f20"/>
    <path id="Path_2146" data-name="Path 2146" d="M1178.988,1314.846l-2.076-3.115h-1.536v3.115h-2.139v-9.073h6.167a1.107,1.107,0,0,1,.768.281.876.876,0,0,1,.311.675v4.027a.9.9,0,0,1-.311.7,1.107,1.107,0,0,1-.768.279l2.075,3.115Zm-3.612-5.045h2.969v-2.1h-2.969Z" transform="translate(-1094.201 -1305.773)" fill="#231f20"/>
    <path id="Path_2147" data-name="Path 2147" d="M1371.418,1307.725v1.661h2.595v1.91h-2.595v1.64h4.712v1.91h-6.808v-9.073h6.808v1.952Z" transform="translate(-1270.689 -1305.773)" fill="#231f20"/>
    <path id="Path_2148" data-name="Path 2148" d="M1558.22,1312.914h3.986v1.931h-6.144v-9.073h2.159Z" transform="translate(-1438.764 -1305.773)" fill="#231f20"/>
  </g>
</svg>
