<svg width="92" height="68" viewBox="0 0 92 68" fill="none" xmlns="http://www.w3.org/2000/svg">
<path d="M30.8257 45.3304L18.2889 27.1216C18.2889 27.1216 17.6211 26.3114 17.6211 25.51C17.6211 24.7443 18.2889 23.8895 18.2889 23.8895L30.8257 5.68076C34.6723 0.347256 38.5989 0 38.5989 0H18.7697C14.0327 0 12.3054 3.57941 12.3054 3.57941L1.69176 20.8265C0.400681 23.1059 0.017808 24.023 0 25.5011C0.00890402 26.9792 0.400681 27.8963 1.69176 30.1757L12.2965 47.4228C12.2965 47.4228 14.0327 51.0022 18.7608 51.0022H38.59C38.5989 51.0111 34.6634 50.6639 30.8257 45.3304Z" fill="black"/>
<path d="M83.2882 45.3304L70.7602 27.1216C70.7602 27.1216 70.0924 26.3114 70.0924 25.51C70.0924 24.7443 70.7602 23.8895 70.7602 23.8895L83.2882 5.68076C87.1347 0.347256 91.0614 0 91.0614 0H71.2322C66.4952 0 64.7678 3.57941 64.7678 3.57941L54.1631 20.8265C52.8721 23.1059 52.4892 24.023 52.4803 25.5011C52.4892 26.9792 52.881 27.8963 54.1631 30.1757L64.7678 47.4228C64.7678 47.4228 66.5041 51.0022 71.2322 51.0022H91.0614C91.0614 51.0111 87.1347 50.6639 83.2882 45.3304Z" fill="#EC1C24"/>
<path d="M35.1709 45.3304L47.6989 27.1216C47.6989 27.1216 48.3667 26.3114 48.3667 25.51C48.3667 24.7443 47.6989 23.8895 47.6989 23.8895L35.1709 5.68076C31.3244 0.347256 27.3977 0 27.3977 0H47.227C51.9639 0 53.6913 3.57941 53.6913 3.57941L64.296 20.8265C65.5871 23.1059 65.97 24.023 65.9878 25.5011C65.9789 26.9792 65.596 27.8963 64.296 30.1757L53.6913 47.4228C53.6913 47.4228 51.9639 51.0022 47.227 51.0022H27.3977C27.3977 51.0111 31.3244 50.6639 35.1709 45.3304Z" fill="#EC1C24"/>
<path d="M27.4778 58.8022C27.7717 58.8022 28.021 58.9002 28.2347 59.0872C28.4484 59.2742 28.5463 59.5146 28.5463 59.7906V67.0207C28.5463 67.2967 28.4395 67.5282 28.2347 67.7152C28.021 67.8932 27.7717 67.9912 27.4778 67.9912H21.2806V58.8111H27.4778V58.8022ZM26.3826 60.7789H23.4176V66.0501H26.3826V60.7789Z" fill="black"/>
<path d="M42.0626 67.9911L39.9613 64.8391H38.4031V67.9911H36.2394V58.811H42.4811C42.7927 58.811 43.051 58.909 43.2558 59.096C43.4695 59.2829 43.5674 59.5145 43.5674 59.7816V63.8596C43.5674 64.1356 43.4605 64.376 43.2558 64.563C43.0421 64.75 42.7838 64.848 42.4811 64.848L44.5825 68H42.0626V67.9911ZM38.4031 62.8802H41.4037V60.761H38.4031V62.8802Z" fill="black"/>
<path d="M57.9919 67.9912H52.7385C52.4447 67.9912 52.1954 67.9022 51.9817 67.7152C51.768 67.5371 51.67 67.3056 51.67 67.0207V59.7728C51.67 59.5057 51.7769 59.2831 51.9817 59.0872C52.1954 58.9002 52.4447 58.8022 52.7385 58.8022H57.9919C58.2857 58.8022 58.535 58.9002 58.7487 59.0872C58.9624 59.2742 59.0604 59.5057 59.0604 59.7728V67.0207C59.0604 67.2967 58.9535 67.5282 58.7487 67.7152C58.535 67.8932 58.2857 67.9912 57.9919 67.9912ZM53.8248 66.0323H56.8967V60.7611H53.8248V66.0323Z" fill="black"/>
<path d="M73.3514 58.8022C73.6452 58.8022 73.8945 58.9002 74.1082 59.0872C74.3219 59.2742 74.4199 59.5057 74.4199 59.7728V63.8508C74.4199 64.1268 74.313 64.3673 74.1082 64.5542C73.8945 64.7412 73.6452 64.8392 73.3514 64.8392H69.2555V67.9912H67.074V58.8111H73.3514V58.8022ZM72.2562 60.7611H69.2555V62.8803H72.2562V60.7611Z" fill="black"/>
</svg>
