<svg width="149" height="68" viewBox="0 0 149 68" fill="none" xmlns="http://www.w3.org/2000/svg">
<path d="M59.3218 45.3602L46.7767 27.1395C46.7767 27.1395 46.1085 26.3287 46.1085 25.5268C46.1085 24.7606 46.7767 23.9052 46.7767 23.9052L59.3218 5.6845C63.1709 0.347484 67.1001 0 67.1001 0H47.2579C42.5178 0 40.7893 3.58177 40.7893 3.58177L30.1688 20.8402C28.8768 23.1211 28.4937 24.0389 28.4759 25.5179C28.4848 26.9969 28.8768 27.9147 30.1688 30.1956L40.7804 47.454C40.7804 47.454 42.5178 51.0358 47.249 51.0358H67.0912C67.1001 51.0447 63.162 50.6972 59.3218 45.3602Z" fill="black"/>
<path d="M111.819 45.3602L99.2826 27.1395C99.2826 27.1395 98.6143 26.3287 98.6143 25.5268C98.6143 24.7606 99.2826 23.9052 99.2826 23.9052L111.819 5.6845C115.668 0.347484 119.597 0 119.597 0H99.7548C95.0147 0 93.2862 3.58177 93.2862 3.58177L82.6746 20.8402C81.3826 23.1211 80.9995 24.0389 80.9906 25.5179C80.9995 26.9969 81.3915 27.9147 82.6746 30.1956L93.2862 47.454C93.2862 47.454 95.0236 51.0358 99.7548 51.0358H119.597C119.597 51.0447 115.668 50.6972 111.819 45.3602Z" fill="#EC1C24"/>
<path d="M63.6698 45.3602L76.206 27.1395C76.206 27.1395 76.8743 26.3287 76.8743 25.5268C76.8743 24.7606 76.206 23.9052 76.206 23.9052L63.6698 5.6845C59.8208 0.347484 55.8915 0 55.8915 0H75.7338C80.4738 0 82.2023 3.58177 82.2023 3.58177L92.814 20.8402C94.1059 23.1211 94.489 24.0389 94.5068 25.5179C94.4979 26.9969 94.1148 27.9147 92.814 30.1956L82.2023 47.454C82.2023 47.454 80.4738 51.0358 75.7338 51.0358H55.8915C55.8915 51.0447 59.8208 50.6972 63.6698 45.3602Z" fill="#EC1C24"/>
<path d="M2.12055 60.8187V62.4937H4.74004V64.4183H2.12055V66.0755H6.8695V68H0V58.8496H6.8695V60.8187H2.12055V60.8187Z" fill="black"/>
<path d="M16.501 66.0488H20.5194V68H14.3181V58.8496H16.4921V66.0488H16.501Z" fill="black"/>
<path d="M30.2579 60.8187V62.4937H32.8774V64.4183H30.2579V66.0755H35.0157V68H28.1462V58.8496H35.0157V60.8187H30.2579V60.8187Z" fill="black"/>
<path d="M47.0529 61.9679V60.8186H44.4334V66.0754H47.0529V64.9171H49.2091V67.0287C49.2091 67.3049 49.1022 67.5366 48.8972 67.7237C48.6834 67.9019 48.425 67.9999 48.1221 67.9999H43.3731C43.0702 67.9999 42.8118 67.9108 42.6069 67.7237C42.402 67.5455 42.304 67.3138 42.304 67.0287V59.8296C42.304 59.5534 42.402 59.3128 42.6069 59.1257C42.8118 58.9386 43.0613 58.8406 43.3731 58.8406H48.1221C48.425 58.8406 48.6834 58.9386 48.8972 59.1257C49.1111 59.3128 49.2091 59.5445 49.2091 59.8296V61.9679H47.0529Z" fill="black"/>
<path d="M62.8144 60.7741H60.7028V68H58.5466V60.7741H56.435V58.8496H62.8144V60.7741Z" fill="black"/>
<path d="M76.2416 68L74.1478 64.8638H72.5975V68H70.4413V58.8496H76.6603C76.9633 58.8496 77.2216 58.9476 77.4355 59.1347C77.6493 59.3218 77.7473 59.5535 77.7473 59.8119V63.8748C77.7473 64.151 77.6404 64.3915 77.4355 64.5786C77.2305 64.7657 76.9633 64.8638 76.6603 64.8638L78.7541 68H76.2416ZM72.5975 62.9125H75.5911V60.8009H72.5975V62.9125V62.9125Z" fill="black"/>
<path d="M92.1903 67.9999H86.9602C86.6662 67.9999 86.4167 67.9108 86.2029 67.7237C85.998 67.5455 85.8911 67.3138 85.8911 67.0287V59.8028C85.8911 59.5355 85.998 59.3128 86.2029 59.1257C86.4078 58.9386 86.6662 58.8406 86.9602 58.8406H92.1992C92.4932 58.8406 92.7427 58.9386 92.9565 59.1257C93.1703 59.3128 93.2684 59.5444 93.2684 59.8028V67.0287C93.2684 67.3049 93.1614 67.5366 92.9565 67.7237C92.7427 67.9108 92.4843 67.9999 92.1903 67.9999ZM88.0472 66.0486H91.1033V60.7918H88.0472V66.0486Z" fill="black"/>
<path d="M109.297 68H107.408L103.301 61.7988V68H101.162V58.8496H104.236L107.123 63.2511V58.8496H109.279V68H109.297Z" fill="black"/>
<path d="M119.437 68H117.28V58.8496H119.437V68Z" fill="black"/>
<path d="M131.91 61.9679V60.8186H129.291V66.0754H131.91V64.9171H134.067V67.0287C134.067 67.3049 133.96 67.5366 133.755 67.7237C133.55 67.9019 133.283 67.9999 132.98 67.9999H128.231C127.928 67.9999 127.669 67.9108 127.464 67.7237C127.259 67.5455 127.161 67.3138 127.161 67.0287V59.8296C127.161 59.5534 127.259 59.3128 127.464 59.1257C127.669 58.9386 127.919 58.8406 128.231 58.8406H132.98C133.283 58.8406 133.541 58.9386 133.755 59.1257C133.969 59.3128 134.067 59.5445 134.067 59.8296V61.9679H131.91Z" fill="black"/>
<path d="M147.013 68H141.631V66.0488H145.926V64.3292H142.718C142.424 64.3292 142.166 64.2311 141.952 64.044C141.738 63.8569 141.631 63.6253 141.631 63.3402V59.7584C141.631 59.4911 141.738 59.2684 141.952 59.0813C142.166 58.8941 142.424 58.7961 142.718 58.7961H148.082V60.7474H143.805V62.3601H147.013C147.307 62.3601 147.556 62.4581 147.77 62.6452C147.984 62.8323 148.082 63.064 148.082 63.3491V67.011C148.082 67.2872 147.975 67.5278 147.77 67.7149C147.556 67.902 147.307 68 147.013 68Z" fill="black"/>
</svg>
