<svg id="Group_245" data-name="Group 245" xmlns="http://www.w3.org/2000/svg" width="133.774" height="67.491" viewBox="0 0 133.774 67.491">
  <path id="Path_2149" data-name="Path 2149" d="M520.393,664,507.947,645.92a3.027,3.027,0,0,1-.663-1.605,3.236,3.236,0,0,1,.663-1.606l12.446-18.083c3.816-5.293,7.721-5.64,7.721-5.64H508.419A7.091,7.091,0,0,0,502,622.542l-10.536,17.131c-1.282,2.261-1.664,3.174-1.676,4.642h0c.012,1.468.394,2.381,1.676,4.641L502,666.086a7.091,7.091,0,0,0,6.422,3.558h19.694S524.21,669.3,520.393,664Z" transform="translate(-468.537 -618.985)" fill="#231f20"/>
  <path id="Path_2150" data-name="Path 2150" d="M1108.341,664,1095.9,645.92a3.026,3.026,0,0,1-.663-1.605,3.235,3.235,0,0,1,.663-1.606l12.445-18.083c3.816-5.293,7.72-5.64,7.72-5.64h-19.694a7.093,7.093,0,0,0-6.422,3.557l-10.536,17.131c-1.282,2.261-1.663,3.174-1.676,4.642h0c.013,1.468.394,2.381,1.676,4.641l10.536,17.131a7.093,7.093,0,0,0,6.422,3.558h19.694S1112.157,669.3,1108.341,664Z" transform="translate(-1004.378 -618.985)" fill="#ec1c24"/>
  <path id="Path_2151" data-name="Path 2151" d="M804.464,664l12.445-18.085a3.023,3.023,0,0,0,.664-1.605,3.232,3.232,0,0,0-.664-1.606l-12.445-18.083c-3.818-5.293-7.721-5.64-7.721-5.64h19.7a7.087,7.087,0,0,1,6.42,3.557l10.536,17.131c1.284,2.261,1.664,3.174,1.676,4.642h0c-.012,1.468-.392,2.381-1.676,4.641l-10.536,17.131a7.086,7.086,0,0,1-6.42,3.558h-19.7S800.646,669.3,804.464,664Z" transform="translate(-748.291 -618.985)" fill="#ec1c24"/>
  <path id="Path_2152" data-name="Path 2152" d="M252.118,1280.112v1.661h2.595v1.91h-2.595v3.551h-2.1v-9.073h6.81v1.952Z" transform="translate(-250.021 -1219.742)" fill="#231f20"/>
  <path id="Path_2153" data-name="Path 2153" d="M445.082,1287.233h-5.19a1.1,1.1,0,0,1-.747-.27.868.868,0,0,1-.311-.686v-7.162a.876.876,0,0,1,.311-.674,1.079,1.079,0,0,1,.747-.281h5.19a1.079,1.079,0,0,1,.747.281.875.875,0,0,1,.312.674v7.162a.867.867,0,0,1-.312.686A1.1,1.1,0,0,1,445.082,1287.233Zm-4.111-1.932H444v-5.211h-3.031Z" transform="translate(-422.1 -1219.742)" fill="#231f20"/>
  <path id="Path_2154" data-name="Path 2154" d="M649.593,1287.233H644.4a1.1,1.1,0,0,1-.748-.27.867.867,0,0,1-.311-.686v-7.162a.875.875,0,0,1,.311-.674,1.079,1.079,0,0,1,.748-.281h5.19a1.08,1.08,0,0,1,.747.281.876.876,0,0,1,.312.674v7.162a.868.868,0,0,1-.312.686A1.1,1.1,0,0,1,649.593,1287.233Zm-4.111-1.932h3.031v-5.211h-3.031Z" transform="translate(-608.486 -1219.742)" fill="#231f20"/>
  <path id="Path_2155" data-name="Path 2155" d="M850.2,1280.071h-2.1v7.163h-2.138v-7.163h-2.1v-1.91H850.2Z" transform="translate(-791.241 -1219.742)" fill="#231f20"/>
  <path id="Path_2156" data-name="Path 2156" d="M1033.618,1287.233v-9.073h2.117v7.1l2.034-3.8h1.371l2.034,3.8v-7.1h2.118v9.073h-3.3l-1.537-2.368-1.536,2.368Z" transform="translate(-964.174 -1219.742)" fill="#231f20"/>
  <path id="Path_2257" data-name="Path 2257" d="M1261.286,1287.446l-.706-2.138h-3.363l-.727,2.138h-2.2l2.969-9.052h3.259l2.969,9.052Zm-2.387-7.141-1.038,3.051h2.055Z" transform="translate(-1147.62 -1219.955)" fill="#231f20"/>
  <path id="Path_2158" data-name="Path 2158" d="M1474.62,1287.233l-2.076-3.115h-1.536v3.115h-2.139v-9.073h6.167a1.1,1.1,0,0,1,.767.281.875.875,0,0,1,.312.674v4.028a.9.9,0,0,1-.312.695,1.1,1.1,0,0,1-.767.281l2.076,3.115Zm-3.612-5.045h2.969v-2.1h-2.969Z" transform="translate(-1343.338 -1219.742)" fill="#231f20"/>
  <path id="Path_2258" data-name="Path 2258" d="M1675.238,1280.112v1.661h2.6v1.91h-2.6v1.64h4.714v1.911h-6.809v-9.073h6.809v1.952Z" transform="translate(-1582.947 -1219.742)" fill="#231f20"/>
</svg>
