<?xml version="1.0" encoding="utf-8"?>
<!-- Generator: Adobe Illustrator 26.0.2, SVG Export Plug-In . SVG Version: 6.00 Build 0)  -->
<svg version="1.1" id="Layer_1" xmlns="http://www.w3.org/2000/svg" xmlns:xlink="http://www.w3.org/1999/xlink" x="0px" y="0px"
	 viewBox="0 0 2000 2000" style="enable-background:new 0 0 2000 2000;" xml:space="preserve">
<style type="text/css">
	.st0{fill:#EC1C24;}
</style>
<g>
	<path d="M834.8,1127.5L694,923c0,0-7.5-9.1-7.5-18.1c0-8.6,7.5-18.2,7.5-18.2l140.8-204.5c43.2-59.9,87.3-63.8,87.3-63.8H699.4
		c-53.2,0-72.6,40.2-72.6,40.2L507.6,852.3c-14.5,25.6-18.8,35.9-19,52.5l0,0l0,0l0,0l0,0c0.1,16.6,4.5,26.9,19,52.5l119.1,193.7
		c0,0,19.5,40.2,72.6,40.2h222.7C922.1,1191.3,877.9,1187.4,834.8,1127.5z"/>
	<path class="st0" d="M1424,1127.5L1283.3,923c0,0-7.5-9.1-7.5-18.1c0-8.6,7.5-18.2,7.5-18.2L1424,682.2
		c43.2-59.9,87.3-63.8,87.3-63.8h-222.7c-53.2,0-72.6,40.2-72.6,40.2l-119.1,193.7c-14.5,25.6-18.8,35.9-18.9,52.5l0,0l0,0l0,0l0,0
		c0.1,16.6,4.5,26.9,18.9,52.5l119.1,193.7c0,0,19.5,40.2,72.6,40.2h222.7C1511.3,1191.3,1467.2,1187.4,1424,1127.5z"/>
	<path class="st0" d="M883.6,1127.5L1024.3,923c0,0,7.5-9.1,7.5-18.1c0-8.6-7.5-18.2-7.5-18.2L883.6,682.2
		c-43.2-59.9-87.3-63.8-87.3-63.8H1019c53.2,0,72.6,40.2,72.6,40.2l119.1,193.7c14.5,25.6,18.8,35.9,19,52.5l0,0l0,0l0,0l0,0
		c-0.1,16.6-4.4,26.9-19,52.5l-119.1,193.7c0,0-19.4,40.2-72.6,40.2H796.3C796.3,1191.3,840.4,1187.4,883.6,1127.5z"/>
</g>
<g>
	<path d="M797.2,1278.8c3.3,0,6.1,1.1,8.5,3.2c2.4,2.1,3.5,4.8,3.5,7.9v81.2c0,3.1-1.2,5.7-3.5,7.8c-2.4,2-5.2,3.1-8.5,3.1h-69.6
		v-103.1H797.2z M784.9,1301h-33.3v59.2h33.3V1301z"/>
	<path d="M961,1382l-23.6-35.4h-17.5v35.4h-24.3v-103.1h70.1c3.5,0,6.4,1.1,8.7,3.2c2.4,2.1,3.5,4.7,3.5,7.7v45.8
		c0,3.1-1.2,5.8-3.5,7.9c-2.4,2.1-5.3,3.2-8.7,3.2l23.6,35.4H961z M919.9,1324.6h33.7v-23.8h-33.7V1324.6z"/>
	<path d="M1139.9,1382h-59c-3.3,0-6.1-1-8.5-3.1c-2.4-2-3.5-4.6-3.5-7.8v-81.4c0-3,1.2-5.5,3.5-7.7c2.4-2.1,5.2-3.2,8.5-3.2h59
		c3.3,0,6.1,1.1,8.5,3.2c2.4,2.1,3.5,4.7,3.5,7.7v81.4c0,3.1-1.2,5.7-3.5,7.8C1146,1380.9,1143.2,1382,1139.9,1382z M1093.1,1360
		h34.5v-59.2h-34.5V1360z"/>
	<path d="M1312.4,1278.8c3.3,0,6.1,1.1,8.5,3.2c2.4,2.1,3.5,4.7,3.5,7.7v45.8c0,3.1-1.2,5.8-3.5,7.9c-2.4,2.1-5.2,3.2-8.5,3.2h-46
		v35.4h-24.5v-103.1H1312.4z M1300.1,1300.8h-33.7v23.8h33.7V1300.8z"/>
</g>
</svg>
