<?xml version="1.0" encoding="utf-8"?>
<!-- Generator: Adobe Illustrator 26.0.2, SVG Export Plug-In . SVG Version: 6.00 Build 0)  -->
<svg version="1.1" id="Layer_1" xmlns="http://www.w3.org/2000/svg" xmlns:xlink="http://www.w3.org/1999/xlink" x="0px" y="0px"
	 viewBox="0 0 2000 2000" style="enable-background:new 0 0 2000 2000;" xml:space="preserve">
<style type="text/css">
	.st0{fill:#FFFFFF;}
	.st1{fill:#EC1C24;}
</style>
<g>
	<rect y="0" class="st0" width="2000" height="2000"/>
</g>
<g>
	<path d="M843.8,1127.5L703,923c0,0-7.5-9.1-7.5-18.1c0-8.6,7.5-18.2,7.5-18.2l140.8-204.5c43.2-59.9,87.3-63.8,87.3-63.8H708.4
		c-53.2,0-72.6,40.2-72.6,40.2L516.6,852.3c-14.5,25.6-18.8,35.9-19,52.5l0,0l0,0l0,0l0,0c0.1,16.6,4.5,26.9,19,52.5l119.1,193.7
		c0,0,19.5,40.2,72.6,40.2h222.7C931.1,1191.3,886.9,1187.4,843.8,1127.5z"/>
	<path class="st1" d="M1433,1127.5L1292.3,923c0,0-7.5-9.1-7.5-18.1c0-8.6,7.5-18.2,7.5-18.2L1433,682.2
		c43.2-59.9,87.3-63.8,87.3-63.8h-222.7c-53.2,0-72.6,40.2-72.6,40.2l-119.1,193.7c-14.5,25.6-18.8,35.9-18.9,52.5l0,0l0,0l0,0l0,0
		c0.1,16.6,4.5,26.9,18.9,52.5l119.1,193.7c0,0,19.5,40.2,72.6,40.2h222.7C1520.3,1191.3,1476.2,1187.4,1433,1127.5z"/>
	<path class="st1" d="M892.6,1127.5L1033.3,923c0,0,7.5-9.1,7.5-18.1c0-8.6-7.5-18.2-7.5-18.2L892.6,682.2
		c-43.2-59.9-87.3-63.8-87.3-63.8H1028c53.2,0,72.6,40.2,72.6,40.2l119.1,193.7c14.5,25.6,18.8,35.9,19,52.5l0,0l0,0l0,0l0,0
		c-0.1,16.6-4.4,26.9-19,52.5l-119.1,193.7c0,0-19.4,40.2-72.6,40.2H805.3C805.3,1191.3,849.4,1187.4,892.6,1127.5z"/>
</g>
<g>
	<path d="M201.8,1301v18.8h29.4v21.6h-29.4v18.6h53.3v21.6H178v-102.7h77.1v22.1H201.8z"/>
	<path d="M363.2,1359.7h45.1v21.9h-69.6v-102.7h24.4V1359.7z"/>
	<path d="M517.6,1301v18.8H547v21.6h-29.4v18.6H571v21.6h-77.1v-102.7H571v22.1H517.6z"/>
	<path d="M706.1,1313.9V1301h-29.4v59h29.4V1347h24.2v23.7c0,3.1-1.2,5.7-3.5,7.8c-2.4,2-5.3,3.1-8.7,3.1h-53.3
		c-3.4,0-6.3-1-8.6-3.1c-2.3-2-3.4-4.6-3.4-7.8v-80.8c0-3.1,1.1-5.8,3.4-7.9c2.3-2.1,5.1-3.2,8.6-3.2h53.3c3.4,0,6.3,1.1,8.7,3.2
		s3.5,4.7,3.5,7.9v24H706.1z"/>
	<path d="M883,1300.5h-23.7v81.1h-24.2v-81.1h-23.7v-21.6H883V1300.5z"/>
	<path d="M1033.7,1381.6l-23.5-35.2h-17.4v35.2h-24.2v-102.7h69.8c3.4,0,6.3,1.1,8.7,3.2c2.4,2.1,3.5,4.7,3.5,7.6v45.6
		c0,3.1-1.2,5.8-3.5,7.9c-2.3,2.1-5.3,3.2-8.7,3.2l23.5,35.2H1033.7z M992.8,1324.5h33.6v-23.7h-33.6V1324.5z"/>
	<path d="M1212.7,1381.6H1154c-3.3,0-6.1-1-8.5-3.1c-2.3-2-3.5-4.6-3.5-7.8v-81.1c0-3,1.2-5.5,3.5-7.6s5.2-3.2,8.5-3.2h58.8
		c3.3,0,6.1,1.1,8.5,3.2c2.4,2.1,3.5,4.7,3.5,7.6v81.1c0,3.1-1.2,5.7-3.5,7.8C1218.9,1380.6,1216,1381.6,1212.7,1381.6z
		 M1166.2,1359.7h34.3v-59h-34.3V1359.7z"/>
	<path d="M1404.7,1381.6h-21.2l-46.1-69.6v69.6h-24v-102.7h34.5l32.4,49.4v-49.4h24.2V1381.6z"/>
	<path d="M1518.5,1381.6h-24.2v-102.7h24.2V1381.6z"/>
	<path d="M1658.5,1313.9V1301h-29.4v59h29.4V1347h24.2v23.7c0,3.1-1.2,5.7-3.5,7.8c-2.3,2-5.3,3.1-8.7,3.1h-53.3
		c-3.4,0-6.3-1-8.6-3.1c-2.3-2-3.4-4.6-3.4-7.8v-80.8c0-3.1,1.1-5.8,3.4-7.9c2.3-2.1,5.1-3.2,8.6-3.2h53.3c3.4,0,6.3,1.1,8.7,3.2
		s3.5,4.7,3.5,7.9v24H1658.5z"/>
	<path d="M1828,1381.6h-60.4v-21.9h48.2v-19.3h-36c-3.3,0-6.2-1.1-8.6-3.2c-2.4-2.1-3.6-4.7-3.6-7.9v-40.2c0-3,1.2-5.5,3.6-7.6
		c2.4-2.1,5.3-3.2,8.6-3.2h60.2v21.9H1792v18.1h36c3.3,0,6.1,1.1,8.5,3.2c2.4,2.1,3.5,4.7,3.5,7.9v41.1c0,3.1-1.2,5.8-3.5,7.9
		C1834.1,1380.5,1831.3,1381.6,1828,1381.6z"/>
</g>
</svg>
