<svg id="Group_244" data-name="Group 244" xmlns="http://www.w3.org/2000/svg" width="139.587" height="67.491" viewBox="0 0 139.587 67.491">
  <g id="Group_105" data-name="Group 105" transform="translate(24.431)">
    <path id="Path_2174" data-name="Path 2174" d="M640.922,745.625l-12.486-18.144a3.031,3.031,0,0,1-.665-1.61,3.241,3.241,0,0,1,.665-1.611l12.486-18.142c3.829-5.31,7.746-5.658,7.746-5.658H628.91a7.113,7.113,0,0,0-6.442,3.568L611.9,721.214c-1.286,2.268-1.669,3.184-1.681,4.658h0c.012,1.472.4,2.389,1.681,4.656l10.57,17.186a7.113,7.113,0,0,0,6.442,3.569h19.758S644.751,750.935,640.922,745.625Z" transform="translate(-610.216 -700.46)" fill="#231f20"/>
    <path id="Path_2175" data-name="Path 2175" d="M1090.091,745.625l-12.485-18.144a3.034,3.034,0,0,1-.664-1.61,3.244,3.244,0,0,1,.664-1.611l12.485-18.142c3.829-5.31,7.746-5.658,7.746-5.658h-19.759a7.114,7.114,0,0,0-6.443,3.568l-10.57,17.186c-1.286,2.268-1.669,3.184-1.681,4.658h0c.013,1.472.4,2.389,1.681,4.656l10.57,17.186a7.114,7.114,0,0,0,6.443,3.569h19.759S1093.92,750.935,1090.091,745.625Z" transform="translate(-1007.111 -700.46)" fill="#ec1c24"/>
    <path id="Path_2176" data-name="Path 2176" d="M852.464,745.625l12.485-18.144a3.03,3.03,0,0,0,.666-1.61,3.239,3.239,0,0,0-.666-1.611l-12.485-18.142c-3.83-5.31-7.746-5.658-7.746-5.658h19.759a7.109,7.109,0,0,1,6.441,3.568l10.57,17.186c1.287,2.268,1.669,3.184,1.681,4.658h0c-.012,1.472-.394,2.389-1.681,4.656l-10.57,17.186a7.109,7.109,0,0,1-6.441,3.569H844.719S848.634,750.935,852.464,745.625Z" transform="translate(-817.428 -700.46)" fill="#ec1c24"/>
  </g>
  <g id="Group_106" data-name="Group 106" transform="translate(0 58.348)">
    <path id="Path_2177" data-name="Path 2177" d="M405.644,1212.843h-5.353v-1.936h4.27V1209.2h-3.187a1.116,1.116,0,0,1-.76-.281.885.885,0,0,1-.323-.7v-3.562a.869.869,0,0,1,.323-.677,1.121,1.121,0,0,1,.76-.281h5.332v1.937h-4.249v1.6h3.186a1.085,1.085,0,0,1,.75.28.9.9,0,0,1,.312.7v3.645a.9.9,0,0,1-.312.7A1.079,1.079,0,0,1,405.644,1212.843Z" transform="translate(-400.291 -1203.7)" fill="#231f20"/>
    <path id="Path_2178" data-name="Path 2178" d="M567.45,1213.159h-5.207a1.108,1.108,0,0,1-.75-.27.869.869,0,0,1-.312-.688v-7.186a.878.878,0,0,1,.312-.676,1.079,1.079,0,0,1,.75-.281h5.207a1.079,1.079,0,0,1,.75.281.879.879,0,0,1,.313.676v7.186a.87.87,0,0,1-.313.688A1.108,1.108,0,0,1,567.45,1213.159Zm-4.124-1.937h3.041v-5.228h-3.041Z" transform="translate(-542.457 -1204.017)" fill="#231f20"/>
    <path id="Path_2179" data-name="Path 2179" d="M738.047,1213h-5.228a1.133,1.133,0,0,1-.771-.271.868.868,0,0,1-.312-.687v-8.164H733.9v7.185h3.061v-7.185h2.166v8.164a.868.868,0,0,1-.312.687A1.133,1.133,0,0,1,738.047,1213Z" transform="translate(-693.163 -1203.858)" fill="#231f20"/>
    <path id="Path_2180" data-name="Path 2180" d="M908.056,1213.159l-2.083-3.124h-1.541v3.124h-2.145v-9.1h6.186a1.108,1.108,0,0,1,.771.281.879.879,0,0,1,.312.676v4.041a.9.9,0,0,1-.312.7,1.111,1.111,0,0,1-.771.281l2.083,3.124Zm-3.624-5.061h2.978v-2.1h-2.978Z" transform="translate(-843.865 -1204.017)" fill="#231f20"/>
    <path id="Path_2181" data-name="Path 2181" d="M1073.094,1207.161v-1.145h-2.6v5.227h2.6V1210.1h2.145v2.1a.87.87,0,0,1-.313.688,1.137,1.137,0,0,1-.77.27h-4.728a1.1,1.1,0,0,1-.76-.27.882.882,0,0,1-.3-.688v-7.164a.913.913,0,0,1,.3-.7,1.068,1.068,0,0,1,.76-.281h4.728a1.106,1.106,0,0,1,.77.281.9.9,0,0,1,.313.7v2.124Z" transform="translate(-990.616 -1204.017)" fill="#231f20"/>
    <path id="Path_2182" data-name="Path 2182" d="M1235.518,1213.159h-2.145v-9.1h2.145Z" transform="translate(-1136.42 -1204.017)" fill="#231f20"/>
    <path id="Path_2183" data-name="Path 2183" d="M1370.305,1213.159h-1.875l-4.082-6.165v6.165h-2.125v-9.1h3.062l2.874,4.373v-4.373h2.146Z" transform="translate(-1250.275 -1204.017)" fill="#231f20"/>
    <path id="Path_2184" data-name="Path 2184" d="M1542.076,1206.982v-1.166h-3.062v5.248h3.062v-1.146h-1.312v-1.937h3.437v4.041a.9.9,0,0,1-.313.7,1.085,1.085,0,0,1-.75.281h-5.186a1.085,1.085,0,0,1-.75-.281.9.9,0,0,1-.312-.7v-7.165a.9.9,0,0,1,.312-.7,1.086,1.086,0,0,1,.75-.28h5.186a1.086,1.086,0,0,1,.75.28.906.906,0,0,1,.313.7v2.124Z" transform="translate(-1404.615 -1203.858)" fill="#231f20"/>
  </g>
</svg>
