<svg id="Group_153" data-name="Group 153" xmlns="http://www.w3.org/2000/svg" width="138.935" height="67.491" viewBox="0 0 138.935 67.491">
  <g id="Group_108" data-name="Group 108" transform="translate(24.249)">
    <path id="Path_2185" data-name="Path 2185" d="M519.262,663.416l-12.447-18.086a3.024,3.024,0,0,1-.663-1.6,3.233,3.233,0,0,1,.663-1.606l12.447-18.084c3.816-5.293,7.721-5.641,7.721-5.641h-19.7a7.091,7.091,0,0,0-6.422,3.557L490.33,639.083c-1.282,2.261-1.663,3.174-1.676,4.643h0c.012,1.467.394,2.381,1.676,4.641L500.866,665.5a7.091,7.091,0,0,0,6.422,3.558h19.7S523.078,668.71,519.262,663.416Z" transform="translate(-488.654 -618.395)" fill="#231f20"/>
    <path id="Path_2186" data-name="Path 2186" d="M1108.514,663.416l-12.445-18.086a3.025,3.025,0,0,1-.662-1.6,3.234,3.234,0,0,1,.662-1.606l12.445-18.084c3.816-5.293,7.721-5.641,7.721-5.641H1096.54a7.09,7.09,0,0,0-6.422,3.557l-10.537,17.131c-1.282,2.261-1.663,3.174-1.676,4.643h0c.013,1.467.394,2.381,1.676,4.641l10.537,17.131a7.09,7.09,0,0,0,6.422,3.558h19.695S1112.33,668.71,1108.514,663.416Z" transform="translate(-1025.798 -618.395)" fill="#ec1c24"/>
    <path id="Path_2187" data-name="Path 2187" d="M804.013,663.416l12.446-18.086a3.021,3.021,0,0,0,.664-1.6,3.23,3.23,0,0,0-.664-1.606l-12.446-18.084c-3.818-5.293-7.721-5.641-7.721-5.641h19.7a7.087,7.087,0,0,1,6.42,3.557l10.537,17.131c1.284,2.261,1.664,3.174,1.676,4.643h0c-.012,1.467-.392,2.381-1.676,4.641L822.409,665.5a7.087,7.087,0,0,1-6.42,3.558h-19.7S800.195,668.71,804.013,663.416Z" transform="translate(-769.088 -618.395)" fill="#ec1c24"/>
  </g>
  <g id="Group_109" data-name="Group 109" transform="translate(0 58.376)">
    <path id="Path_2188" data-name="Path 2188" d="M220.765,1280.917h-2.1v7.164H216.53v-7.164h-2.1v-1.91h6.332Z" transform="translate(-214.433 -1278.965)" fill="#231f20"/>
    <path id="Path_2189" data-name="Path 2189" d="M377.249,1288.08l-2.076-3.114h-1.536v3.114H371.5v-9.073h6.166a1.106,1.106,0,0,1,.768.281.876.876,0,0,1,.311.675v4.028a.9.9,0,0,1-.311.7,1.106,1.106,0,0,1-.768.281l2.076,3.114Zm-3.612-5.045h2.969v-2.1h-2.969Z" transform="translate(-357.609 -1278.965)" fill="#231f20"/>
    <path id="Path_2190" data-name="Path 2190" d="M539.787,1288.294l-.706-2.138h-3.363l-.727,2.138h-2.2l2.969-9.052h3.26l2.969,9.052Zm-2.388-7.142-1.038,3.052h2.055Z" transform="translate(-504.637 -1279.179)" fill="#231f20"/>
    <path id="Path_2191" data-name="Path 2191" d="M722.327,1288.08h-1.868l-4.069-6.146v6.146h-2.118v-9.073h3.052l2.865,4.36v-4.36h2.138Z" transform="translate(-670.071 -1278.965)" fill="#231f20"/>
    <path id="Path_2192" data-name="Path 2192" d="M896.4,1287.652h-5.336v-1.931h4.256v-1.7H892.14a1.113,1.113,0,0,1-.758-.281.884.884,0,0,1-.322-.7v-3.55a.864.864,0,0,1,.322-.674,1.114,1.114,0,0,1,.758-.281h5.315v1.931H893.22v1.6H896.4a1.079,1.079,0,0,1,.747.28.9.9,0,0,1,.311.7v3.634a.9.9,0,0,1-.311.7A1.08,1.08,0,0,1,896.4,1287.652Z" transform="translate(-831.227 -1278.537)" fill="#231f20"/>
    <path id="Path_2193" data-name="Path 2193" d="M1055.745,1279.007a1.078,1.078,0,0,1,.748.281.878.878,0,0,1,.312.675v4.028a.9.9,0,0,1-.312.7,1.078,1.078,0,0,1-.748.281H1051.7v3.114h-2.159v-9.073Zm-1.079,1.931H1051.7v2.1h2.969Z" transform="translate(-975.689 -1278.965)" fill="#231f20"/>
    <path id="Path_2194" data-name="Path 2194" d="M1223.888,1288.08h-5.19a1.1,1.1,0,0,1-.748-.271.869.869,0,0,1-.311-.685v-7.162a.878.878,0,0,1,.311-.675,1.079,1.079,0,0,1,.748-.281h5.19a1.079,1.079,0,0,1,.748.281.876.876,0,0,1,.312.675v7.162a.867.867,0,0,1-.312.685A1.1,1.1,0,0,1,1223.888,1288.08Zm-4.11-1.931h3.031v-5.211h-3.031Z" transform="translate(-1128.925 -1278.965)" fill="#231f20"/>
    <path id="Path_2195" data-name="Path 2195" d="M1394.78,1288.08l-2.076-3.114h-1.536v3.114h-2.139v-9.073h6.167a1.106,1.106,0,0,1,.768.281.876.876,0,0,1,.311.675v4.028a.9.9,0,0,1-.311.7,1.106,1.106,0,0,1-.768.281l2.076,3.114Zm-3.612-5.045h2.969v-2.1h-2.969Z" transform="translate(-1285.159 -1278.965)" fill="#231f20"/>
    <path id="Path_2196" data-name="Path 2196" d="M1562.756,1280.917h-2.1v7.164h-2.138v-7.164h-2.1v-1.91h6.332Z" transform="translate(-1437.752 -1278.965)" fill="#231f20"/>
    <path id="Path_2197" data-name="Path 2197" d="M1718.59,1287.652h-5.336v-1.931h4.256v-1.7h-3.177a1.116,1.116,0,0,1-.759-.281.883.883,0,0,1-.321-.7v-3.55a.863.863,0,0,1,.321-.674,1.116,1.116,0,0,1,.759-.281h5.315v1.931h-4.236v1.6h3.177a1.077,1.077,0,0,1,.747.28.9.9,0,0,1,.312.7v3.634a.9.9,0,0,1-.312.7A1.079,1.079,0,0,1,1718.59,1287.652Z" transform="translate(-1580.714 -1278.537)" fill="#231f20"/>
  </g>
</svg>
